<?xml version="1.0" standalone="no"?>
<!DOCTYPE svg PUBLIC "-//W3C//DTD SVG 20010904//EN"
 "http://www.w3.org/TR/2001/REC-SVG-20010904/DTD/svg10.dtd">
<svg version="1.0" xmlns="http://www.w3.org/2000/svg"
 width="260.000000pt" height="260.000000pt" viewBox="0 0 260.000000 260.000000"
 preserveAspectRatio="xMidYMid meet">
<metadata>
Created by potrace 1.14, written by Peter Selinger 2001-2017
</metadata>
<g transform="translate(0.000000,260.000000) scale(0.100000,-0.100000)"
fill="#000000" stroke="none">
<path d="M1107 2023 c-4 -3 -7 -18 -7 -32 0 -21 13 -34 70 -71 81 -52 125
-115 101 -144 -10 -12 -17 -14 -27 -5 -8 6 -14 18 -14 26 0 19 -42 58 -115
105 -51 33 -65 38 -95 33 -106 -20 -205 -101 -256 -210 -30 -66 -60 -198 -48
-217 3 -4 29 -8 59 -8 30 0 57 -5 60 -10 13 -22 -17 -40 -65 -40 -26 0 -52 -6
-58 -12 -5 -7 -11 -44 -13 -83 l-4 -70 63 -3 c54 -3 62 -6 62 -22 0 -18 -7
-20 -65 -20 l-64 0 -5 -32 c-3 -18 -7 -59 -11 -90 l-5 -58 70 0 c63 0 70 -2
70 -20 0 -18 -7 -20 -70 -20 -78 0 -74 4 -83 -94 -7 -69 13 -86 98 -86 77 0
79 2 121 130 28 83 29 90 29 311 0 202 -2 229 -17 246 -10 11 -18 27 -18 37 0
30 41 14 61 -24 18 -32 19 -62 19 -380 0 -297 2 -349 16 -368 14 -21 21 -22
164 -22 l150 0 2 453 c3 394 5 452 18 452 13 0 15 -58 18 -452 l2 -453 150 0
c143 0 150 1 164 22 14 19 16 71 16 368 0 318 1 348 19 380 20 38 61 54 61 24
0 -10 -8 -26 -17 -37 -16 -17 -18 -44 -18 -246 0 -221 1 -228 29 -311 42 -128
44 -130 121 -130 90 0 102 13 95 105 l-5 70 -70 5 c-56 4 -70 8 -73 23 -3 15
5 17 67 17 l71 0 -6 78 c-4 42 -11 83 -17 90 -5 7 -33 12 -68 12 -52 0 -59 2
-59 20 0 16 8 19 63 22 l62 3 -3 65 c-5 100 -5 100 -66 100 -36 0 -58 5 -66
15 -19 23 -2 33 60 37 l55 3 -3 40 c-13 199 -138 360 -304 390 -33 6 -44 2
-114 -46 -51 -36 -81 -64 -90 -86 -17 -39 -28 -47 -43 -29 -9 11 -9 22 2 48
16 37 49 68 121 114 47 30 59 57 34 82 -13 13 -369 18 -381 5z m81 -904 c4
-21 -118 -229 -134 -229 -29 0 -23 26 32 123 31 56 61 108 67 115 12 15 31 11
35 -9z m319 -95 c35 -60 61 -113 60 -119 -2 -5 -10 -11 -18 -13 -20 -4 -144
211 -135 234 11 29 31 8 93 -102z"/>
</g>
</svg>
